<?xml version="1.0" encoding="UTF-8"?>
<svg version="1.1" xmlns="http://www.w3.org/2000/svg" width="64" height="64">
<path d="M0 0 C5.93431181 4.27133768 10.20568179 9.34232669 12.03515625 16.46484375 C13.04681569 25.45263916 12.4657593 33.03709197 7.03515625 40.46484375 C2.2754769 45.78980568 -3.04719702 49.03485813 -10.16796875 49.81640625 C-19.36512824 50.19464441 -26.15160915 48.8299187 -33.0625 42.5625 C-39.50376135 35.67154073 -40.45086305 29.20915183 -40.265625 19.9375 C-39.51985175 11.32720885 -35.75963599 6.67407018 -29.37890625 1.09375 C-21.20769726 -4.41983277 -8.67190296 -4.5547752 0 0 Z M-15.96484375 9.46484375 C-16.29484375 13.09484375 -16.62484375 16.72484375 -16.96484375 20.46484375 C-20.59484375 20.79484375 -24.22484375 21.12484375 -27.96484375 21.46484375 C-27.96484375 22.78484375 -27.96484375 24.10484375 -27.96484375 25.46484375 C-24.33484375 25.79484375 -20.70484375 26.12484375 -16.96484375 26.46484375 C-16.63484375 30.09484375 -16.30484375 33.72484375 -15.96484375 37.46484375 C-14.64484375 37.46484375 -13.32484375 37.46484375 -11.96484375 37.46484375 C-11.63484375 33.83484375 -11.30484375 30.20484375 -10.96484375 26.46484375 C-7.33484375 26.13484375 -3.70484375 25.80484375 0.03515625 25.46484375 C0.03515625 24.14484375 0.03515625 22.82484375 0.03515625 21.46484375 C-5.40984375 20.96984375 -5.40984375 20.96984375 -10.96484375 20.46484375 C-11.29484375 16.83484375 -11.62484375 13.20484375 -11.96484375 9.46484375 C-13.28484375 9.46484375 -14.60484375 9.46484375 -15.96484375 9.46484375 Z " fill="#FFFFFF" transform="translate(45.96484375,8.53515625)"/>
</svg>
