<?xml version="1.0" encoding="UTF-8"?>
<svg version="1.1" xmlns="http://www.w3.org/2000/svg" width="50" height="50">
<path d="M0 0 C10.60992336 -0.51802519 10.60992336 -0.51802519 14.875 1.5625 C18.37960751 3.17461946 19.42634937 3.19121688 23 2 C23.86625 1.649375 24.7325 1.29875 25.625 0.9375 C30.420783 -0.39466194 35.05418628 -0.15840685 40 0 C40 1.98 40 3.96 40 6 C41.65 6 43.3 6 45 6 C45 18.87 45 31.74 45 45 C38.73 45.33 32.46 45.66 26 46 C25.34 46.66 24.68 47.32 24 48 C22.125 48.265625 22.125 48.265625 20 48.25 C19.29875 48.25515625 18.5975 48.2603125 17.875 48.265625 C16 48 16 48 14 46 C7.73 45.67 1.46 45.34 -5 45 C-5 32.13 -5 19.26 -5 6 C-3.35 6 -1.7 6 0 6 C0 4.02 0 2.04 0 0 Z M2 3 C2 13.89 2 24.78 2 36 C7.61 36.66 13.22 37.32 19 38 C19.1380118 33.79830749 19.25730504 29.60450035 19.32958984 25.40234375 C19.35971791 23.97433814 19.40063103 22.54651694 19.45263672 21.11914062 C19.52564914 19.0633399 19.55948862 17.00998787 19.5859375 14.953125 C19.6173584 13.71723633 19.6487793 12.48134766 19.68115234 11.20800781 C19.29172533 7.74531348 19.29172533 7.74531348 16.15087891 5.62792969 C10.61339913 2.76694138 8.94353222 3 2 3 Z M25.5625 4.9375 C24.90378906 5.29714844 24.24507812 5.65679687 23.56640625 6.02734375 C22.01705784 6.90704111 22.01705784 6.90704111 21 8 C20.91216458 10.21855264 20.89305391 12.43988496 20.90234375 14.66015625 C20.9037587 15.32462265 20.90517365 15.98908905 20.90663147 16.6736908 C20.91224482 18.80333899 20.92479946 20.93288339 20.9375 23.0625 C20.94251329 24.50325369 20.94707649 25.94400903 20.95117188 27.38476562 C20.96136924 30.92324958 20.9809417 34.46150813 21 38 C26.61 37.34 32.22 36.68 38 36 C38 25.11 38 14.22 38 3 C31.03530809 2.67957824 31.03530809 2.67957824 25.5625 4.9375 Z M-2 8 C-3.70492881 9.70492881 -3.1280442 11.84534261 -3.13894653 14.11901855 C-3.1369223 14.83255493 -3.13489807 15.54609131 -3.1328125 16.28125 C-3.13376923 17.00993286 -3.13472595 17.73861572 -3.13571167 18.48937988 C-3.13639335 20.0327971 -3.13453988 21.57621717 -3.13037109 23.11962891 C-3.12502262 25.489974 -3.13031642 27.86012959 -3.13671875 30.23046875 C-3.13605797 31.72656292 -3.1347768 33.22265697 -3.1328125 34.71875 C-3.13483673 35.43228638 -3.13686096 36.14582275 -3.13894653 36.88098145 C-3.41648651 40.22486429 -3.41648651 40.22486429 -2 43 C-0.64506343 43.14434799 0.71660524 43.22690484 2.078125 43.28125 C2.90957031 43.31863281 3.74101562 43.35601562 4.59765625 43.39453125 C5.47292969 43.42933594 6.34820312 43.46414062 7.25 43.5 C12.28517873 43.70382283 17.0565431 43.97176097 22 45 C22.33 44.67 22.66 44.34 23 44 C24.40197402 43.85578846 25.81042831 43.77313876 27.21875 43.71875 C28.06824219 43.68136719 28.91773437 43.64398438 29.79296875 43.60546875 C32.5 43.5 32.5 43.5 35.20703125 43.39453125 C36.05652344 43.35714844 36.90601563 43.31976563 37.78125 43.28125 C38.56564453 43.25095703 39.35003906 43.22066406 40.15820312 43.18945312 C42.01626196 43.19408532 42.01626196 43.19408532 43 42 C43.08843793 39.55169574 43.11528752 37.13179401 43.09765625 34.68359375 C43.0962413 33.95253922 43.09482635 33.22148468 43.09336853 32.46827698 C43.08775408 30.12464368 43.07519922 27.78110461 43.0625 25.4375 C43.05748686 23.85221492 43.05292363 22.26692834 43.04882812 20.68164062 C43.03777997 16.7877239 43.02050572 12.89387795 43 9 C42.01 8.67 41.02 8.34 40 8 C40 17.9 40 27.8 40 38 C32.375 38.9375 32.375 38.9375 30.00927734 39.22631836 C26.86223957 39.61660218 23.76109306 40.04417 20.640625 40.62109375 C17.24110929 41.10889408 15.26448127 40.08816042 12 39 C8.04 38.67 4.08 38.34 0 38 C0 28.1 0 18.2 0 8 C-0.66 8 -1.32 8 -2 8 Z " fill="#FFFFFF" transform="translate(5,2)"/>
</svg>
