<?xml version="1.0" encoding="UTF-8"?>
<svg version="1.1" xmlns="http://www.w3.org/2000/svg" width="100" height="100">
<path d="M0 0 C4.8404001 2.60960701 8.06650639 6.09014417 9.796875 11.28125 C10.46163179 18.73524418 10.44121145 24.25616487 5.796875 30.28125 C0.39692227 35.28608423 -4.05234248 35.63143872 -11.1875 35.5625 C-16.73027207 35.04555753 -19.78938645 32.80659949 -23.578125 28.71875 C-27.13749657 23.37969265 -26.78151279 17.4828524 -26.203125 11.28125 C-24.60392 6.37933903 -21.45575292 3.11633528 -17.203125 0.28125 C-11.84906913 -1.50343529 -5.40672306 -1.76389547 0 0 Z M-20.203125 10.28125 C-22.08167586 14.03835172 -21.86692078 18.20103738 -21.203125 22.28125 C-19.20301333 25.71528788 -16.77961006 28.49300747 -13.203125 30.28125 C-8.90100055 30.90258059 -4.86917013 31.25161679 -1.0234375 29.01171875 C2.05611841 26.38579037 4.50610189 24.29457773 5.10546875 20.14453125 C5.35616361 15.18381166 5.22606859 12.09374103 1.921875 8.21875 C-1.22188951 4.99145551 -3.38681702 4.07135439 -7.890625 3.84375 C-13.59415447 3.86854795 -16.58645525 6.01203127 -20.203125 10.28125 Z " fill="#FFFFFF" transform="translate(32.203125,6.71875)"/>
<path d="M0 0 C7.92 0 15.84 0 24 0 C24.99 2.84625 25.98 5.6925 27 8.625 C27.31324219 9.51010254 27.62648437 10.39520508 27.94921875 11.30712891 C30.92854797 20.06186418 30.92854797 20.06186418 30 24 C27.74204961 26.55246566 25.13790711 28.46088431 22.375 30.4375 C21.66214844 30.99115234 20.94929688 31.54480469 20.21484375 32.11523438 C17.02197041 34.46741537 14.95634782 35.94992304 10.94140625 36.16015625 C4.69636163 33.69697132 -1.77845644 29.27775981 -6 24 C-6.940394 20.36209561 -6.38752099 18.46362517 -5 15 C-4.5801388 13.7045162 -4.16943434 12.40604544 -3.765625 11.10546875 C-2.60172328 7.36235695 -1.30291009 3.70828255 0 0 Z M4 4 C3.13375 6.3925 2.2675 8.785 1.375 11.25 C0.95613525 12.37003418 0.95613525 12.37003418 0.52880859 13.51269531 C-0.80201623 17.32113364 -0.80201623 17.32113364 -0.41796875 21.24609375 C1.32298336 23.39950283 3.14654988 25.08338016 5.3125 26.8125 C6.45138672 27.75029297 6.45138672 27.75029297 7.61328125 28.70703125 C9.90837728 30.20402068 9.90837728 30.20402068 12.4609375 29.953125 C15.61877066 28.76772302 17.73334506 27.10399015 20.3125 24.9375 C21.19550781 24.20402344 22.07851562 23.47054687 22.98828125 22.71484375 C23.65214844 22.14894531 24.31601563 21.58304688 25 21 C24.54619105 19.10307857 24.08675008 17.20750405 23.625 15.3125 C23.36976562 14.25675781 23.11453125 13.20101562 22.8515625 12.11328125 C21.96298766 8.63373888 21.96298766 8.63373888 20 4 C14.72 4 9.44 4 4 4 Z " fill="#FFFFFF" transform="translate(64,56)"/>
<path d="M0 0 C2.28027344 0.15429688 2.28027344 0.15429688 5 1 C6.83691406 3.39257812 6.83691406 3.39257812 8.515625 6.53125 C9.12664063 7.65144531 9.73765625 8.77164063 10.3671875 9.92578125 C10.99533402 11.11690164 11.6229318 12.30831157 12.25 13.5 C12.89161997 14.69227364 13.53483236 15.88369178 14.1796875 17.07421875 C15.35507425 19.24743383 16.52280967 21.42481541 17.68066406 23.60742188 C18.79181933 25.88440512 18.79181933 25.88440512 20 27 C20 28.65 20 30.3 20 32 C8.12 32 -3.76 32 -16 32 C-16 26.84276844 -15.53474147 25.59576647 -13.0078125 21.3671875 C-12.38519531 20.31402344 -11.76257813 19.26085937 -11.12109375 18.17578125 C-10.46238281 17.08652344 -9.80367187 15.99726562 -9.125 14.875 C-8.14853516 13.22951172 -8.14853516 13.22951172 -7.15234375 11.55078125 C-4.83250296 7.65249208 -2.51655909 3.77483864 0 0 Z M1 8 C-0.32851712 9.79394513 -0.32851712 9.79394513 -1.6015625 12.12109375 C-2.09140625 12.97380859 -2.58125 13.82652344 -3.0859375 14.70507812 C-3.59382813 15.60677734 -4.10171875 16.50847656 -4.625 17.4375 C-5.140625 18.33533203 -5.65625 19.23316406 -6.1875 20.15820312 C-8.72628306 23.8739983 -8.72628306 23.8739983 -10 28 C-2.08 28 5.84 28 14 28 C12.741875 25.628125 11.48375 23.25625 10.1875 20.8125 C9.79715576 20.07491455 9.40681152 19.3373291 9.00463867 18.57739258 C6.18799491 13.17787113 6.18799491 13.17787113 3 8 C2.34 8 1.68 8 1 8 Z " fill="#FFFFFF" transform="translate(22,58)"/>
<path d="M0 0 C10.56 0 21.12 0 32 0 C32 10.56 32 21.12 32 32 C21.44 32 10.88 32 0 32 C0 21.44 0 10.88 0 0 Z M4 4 C4 11.92 4 19.84 4 28 C11.92 28 19.84 28 28 28 C28 20.08 28 12.16 28 4 C20.08 4 12.16 4 4 4 Z " fill="#FFFFFF" transform="translate(60,8)"/>
</svg>
