<?xml version="1.0" encoding="UTF-8"?>
<svg version="1.1" xmlns="http://www.w3.org/2000/svg" width="48" height="48">
<path d="M0 0 C3.67943721 1.26000871 6.41526082 3.45519415 9.40234375 5.8671875 C9.98306641 6.32287109 10.56378906 6.77855469 11.16210938 7.24804688 C13.4521544 9.05625583 15.65018988 10.86503363 17.71484375 12.9296875 C17.94189453 15.54345703 17.94189453 15.54345703 17.91015625 18.8125 C17.90371094 19.97910156 17.89726563 21.14570313 17.890625 22.34765625 C17.87386719 23.57097656 17.85710938 24.79429688 17.83984375 26.0546875 C17.83082031 27.28574219 17.82179687 28.51679687 17.8125 29.78515625 C17.78887008 32.83341556 17.75299814 35.88157539 17.71484375 38.9296875 C12.76484375 38.9296875 7.81484375 38.9296875 2.71484375 38.9296875 C2.38484375 34.9696875 2.05484375 31.0096875 1.71484375 26.9296875 C0.39484375 26.9296875 -0.92515625 26.9296875 -2.28515625 26.9296875 C-2.61515625 30.8896875 -2.94515625 34.8496875 -3.28515625 38.9296875 C-8.23515625 38.9296875 -13.18515625 38.9296875 -18.28515625 38.9296875 C-18.52922239 34.75947098 -18.70688686 30.60361167 -18.84765625 26.4296875 C-18.92306641 25.25664062 -18.99847656 24.08359375 -19.07617188 22.875 C-19.29396169 14.26020268 -19.29396169 14.26020268 -16.37353516 10.40844727 C-14.10117174 8.38152511 -11.80092031 6.64055562 -9.28515625 4.9296875 C-8.31219604 4.12809204 -8.31219604 4.12809204 -7.31958008 3.31030273 C-3.10811113 -0.09563419 -3.10811113 -0.09563419 0 0 Z M-8.47265625 9.7421875 C-9.2915332 10.41991211 -9.2915332 10.41991211 -10.12695312 11.11132812 C-12.74149189 13.33060824 -14.18166933 14.61922673 -15.28515625 17.9296875 C-15.36537624 19.33793643 -15.39281602 20.74965981 -15.3828125 22.16015625 C-15.37958984 22.96259766 -15.37636719 23.76503906 -15.37304688 24.59179688 C-15.36466797 25.42517578 -15.35628906 26.25855469 -15.34765625 27.1171875 C-15.34314453 27.96216797 -15.33863281 28.80714844 -15.33398438 29.67773438 C-15.32221028 31.76174905 -15.30427515 33.84572727 -15.28515625 35.9296875 C-12.31515625 35.9296875 -9.34515625 35.9296875 -6.28515625 35.9296875 C-5.95515625 31.9696875 -5.62515625 28.0096875 -5.28515625 23.9296875 C-1.98515625 23.9296875 1.31484375 23.9296875 4.71484375 23.9296875 C5.04484375 27.8896875 5.37484375 31.8496875 5.71484375 35.9296875 C8.68484375 35.9296875 11.65484375 35.9296875 14.71484375 35.9296875 C14.79605126 33.03328632 14.85543796 30.13917838 14.90234375 27.2421875 C14.92748047 26.42556641 14.95261719 25.60894531 14.97851562 24.76757812 C15.03684846 19.96484169 14.88394668 16.78772585 11.71484375 12.9296875 C9.39636933 10.64517481 9.39636933 10.64517481 6.77734375 8.6171875 C5.92269531 7.91980469 5.06804688 7.22242188 4.1875 6.50390625 C-1.25102949 3.04146172 -4.31010582 6.13196584 -8.47265625 9.7421875 Z " fill="#FFFFFF" transform="translate(24.28515625,4.0703125)"/>
</svg>
