<svg width="512" height="512" viewBox="0 0 512 512" fill="none" xmlns="http://www.w3.org/2000/svg">
<path d="M425.469 158V242.022L401.254 256L425.469 269.978V354L401.254 367.978L376.988 382.007L352.722 395.985L328.508 410.015L304.242 423.993L279.976 438.022L255.761 452L231.495 438.022L207.229 423.993L231.495 410.015L279.976 382.007L304.242 367.978L328.508 354L352.722 340.022L376.988 325.993V297.985L352.722 284.007L328.508 269.978L304.242 256L328.508 242.022L352.722 227.993L376.988 214.015V186.007L352.722 171.978L328.508 158L304.242 144.022L279.976 129.993L255.761 116.015L231.495 101.985L207.229 88.0074L231.495 73.9777L255.761 60L279.976 73.9777L304.242 88.0074L328.508 101.985L352.722 116.015L376.988 129.993L401.254 144.022L425.469 158Z" fill="#00AA45"/>
<path d="M279.973 297.985L304.24 312.015L279.973 325.992L255.759 340.022L231.493 354L207.227 367.978L183.013 382.007L158.747 395.985L134.48 382.007L110.266 367.978L86 354V158L110.266 144.022L134.48 129.993L158.747 116.015L183.013 129.993L207.227 144.022L183.013 158L158.747 171.978L134.48 186.007V242.022L158.747 227.992L183.013 214.015L207.227 199.985L231.493 186.007L255.759 171.978L279.973 186.007L304.24 199.985L279.973 214.015L255.759 227.992L231.493 242.022L207.227 256L183.013 269.978L158.747 284.007L134.48 297.985V325.992L158.747 340.022L183.013 325.992L207.227 312.015L231.493 297.985L255.759 284.007L279.973 297.985Z" fill="#00AA45"/>
</svg>
