<?xml version="1.0" encoding="UTF-8"?>
<svg version="1.1" xmlns="http://www.w3.org/2000/svg" width="50" height="50">
<path d="M0 0 C11.88 0 23.76 0 36 0 C36 1.32 36 2.64 36 4 C37.32 4 38.64 4 40 4 C40 19.18 40 34.36 40 50 C28.12 50 16.24 50 4 50 C4 48.68 4 47.36 4 46 C2.68 46 1.36 46 0 46 C0 30.82 0 15.64 0 0 Z M2 2 C2 15.86 2 29.72 2 44 C12.56 44 23.12 44 34 44 C34 30.14 34 16.28 34 2 C23.44 2 12.88 2 2 2 Z M36 6 C36 19.2 36 32.4 36 46 C26.1 46 16.2 46 6 46 C6 46.66 6 47.32 6 48 C16.56 48 27.12 48 38 48 C38 34.14 38 20.28 38 6 C37.34 6 36.68 6 36 6 Z " fill="#FFFFFF" transform="translate(5,0)"/>
<path d="M0 0 C2.375 1.0625 2.375 1.0625 4 3 C4.66067969 7.37700291 4.34131552 9.42747074 2.0625 13.25 C1.381875 14.1575 0.70125 15.065 0 16 C-0.33 16.99 -0.66 17.98 -1 19 C-2.32 19 -3.64 19 -5 19 C-5.57154648 14.14185495 -3.71330785 11.90038004 -1 8 C-1 7.01 -1 6.02 -1 5 C-2.32 4.67 -3.64 4.34 -5 4 C-5.33 4.99 -5.66 5.98 -6 7 C-7.32 7 -8.64 7 -10 7 C-9.6875 4.625 -9.6875 4.625 -9 2 C-5.51131349 -0.32579101 -4.10281481 -0.41865457 0 0 Z " fill="#FFFFFF" transform="translate(26,10)"/>
<path d="M0 0 C1.32 0 2.64 0 4 0 C4 1.65 4 3.3 4 5 C2.68 5 1.36 5 0 5 C0 3.35 0 1.7 0 0 Z " fill="#FFFFFF" transform="translate(21,31)"/>
</svg>
